# xmcd
#
# Track frame offsets:
#	150
#	10966
#	21942
#	32680
#	42385
#	54494
#	64893
#	76749
#	88663
#	98341
#
# Disc length: 1447 seconds
#
# Revision: 0
# Processed by: cddbd v1.5.1PL0 Copyright (c) Steve Scherf et al.
# Submitted via: dBpowerAMP V4.0
#
DISCID=7005a50a
DTITLE=George Jones And Gene Pitney - George Jones And Gene Pitney (Gusto)
DYEAR=2005
DGENRE=Country
TTITLE0=Why Baby Why
TTITLE1=Someday You'll Want Me To Want You
TTITLE2=I'm A Fool To Care
TTITLE3=I've Got Five Dollars And It's Saturday Night
TTITLE4=Louisiana Man
TTITLE5=One Has My Name
TTITLE6=I've Got A New Heartache
TTITLE7=My Shoes Keep Walking Back To You
TTITLE8=Don't Rob Another Man's Castle
TTITLE9=Mockin' Bird Hill
EXTD=George Rogers
EXTT0=
EXTT1=
EXTT2=
EXTT3=
EXTT4=
EXTT5=
EXTT6=
EXTT7=
EXTT8=
EXTT9=
PLAYORDER=
